<svg width="108" height="108" viewBox="0 0 108 108" fill="none" xmlns="http://www.w3.org/2000/svg">
<rect width="108" height="108" fill="white"/>
<path d="M22.9398 45.9599C22.9398 50.0717 21.0323 52.8619 17.7309 54.0367C21.0323 55.2115 22.9398 58.0017 22.9398 62.1135V73.4211C22.9398 76.0644 24.2603 77.386 26.9748 77.386H30.7898V82.9664H25.0673C19.7117 82.9664 16.1902 79.5154 16.1902 74.1553V60.7919C16.1902 58.1485 14.8696 56.7535 12.2285 56.7535H9.51398V51.32H12.2285C14.8696 51.32 16.1902 49.9249 16.1902 47.2816V33.8447C16.1902 28.4846 19.7117 25.0336 25.0673 25.0336H30.7898V30.6139H26.9748C24.2603 30.6139 22.9398 31.9356 22.9398 34.5789V45.9599Z" fill="#543BC4"/>
<path d="M95.7715 51.32H98.486V56.7535H95.7715C93.1304 56.7535 91.8098 58.1485 91.8098 60.7919V74.1553C91.8098 79.5154 88.2883 82.9664 82.8593 82.9664H77.2102V77.386H80.9518C83.6663 77.386 84.9869 76.0644 84.9869 73.4211V62.1135C84.9869 58.0017 86.9677 55.2115 90.1958 54.0367C86.9677 52.8619 84.9869 50.0717 84.9869 45.9599V34.5789C84.9869 31.9356 83.6663 30.6139 80.9518 30.6139H77.2102V25.0336H82.8593C88.2883 25.0336 91.8098 28.4846 91.8098 33.8447V47.2816C91.8098 49.9249 93.1304 51.32 95.7715 51.32Z" fill="#543BC4"/>
<ellipse cx="54" cy="54" rx="9.86699" ry="12.7474" fill="#54525E"/>
<g opacity="0.7">
<path d="M34.9877 40.2885C35.2006 39.9193 35.3071 39.7347 35.424 39.5971C35.96 38.966 36.8302 38.7326 37.6096 39.011C37.7796 39.0717 37.9641 39.1782 38.3329 39.3914L42.336 41.7045C42.7049 41.9176 42.8893 42.0242 43.0268 42.1412C43.6574 42.6776 43.8906 43.5485 43.6125 44.3286C43.5518 44.4988 43.4454 44.6833 43.2324 45.0525C43.0194 45.4217 42.9129 45.6063 42.7961 45.7439C42.2601 46.375 41.3899 46.6084 40.6104 46.33C40.4404 46.2693 40.256 46.1627 39.8871 45.9496L35.884 43.6365C35.5152 43.4234 35.3307 43.3168 35.1932 43.1998C34.5626 42.6634 34.3294 41.7925 34.6076 41.0124C34.6682 40.8422 34.7747 40.6576 34.9877 40.2885Z" fill="#54525E"/>
<path d="M33.4373 53.1829C33.4048 53.3606 33.4048 53.5737 33.4048 54C33.4048 54.4263 33.4048 54.6394 33.4373 54.8171C33.5862 55.6319 34.2232 56.2694 35.0373 56.4184C35.2149 56.4509 35.4278 56.4509 35.8537 56.4509H38.7894C39.2153 56.4509 39.4283 56.4509 39.6058 56.4184C40.4199 56.2694 41.057 55.6319 41.2058 54.8171C41.2383 54.6394 41.2383 54.4263 41.2383 54C41.2383 53.5737 41.2383 53.3606 41.2058 53.1829C41.057 52.3681 40.4199 51.7306 39.6058 51.5816C39.4283 51.5491 39.2153 51.5491 38.7894 51.5491H35.8537C35.4278 51.5491 35.2149 51.5491 35.0373 51.5816C34.2232 51.7306 33.5862 52.3681 33.4373 53.1829Z" fill="#54525E"/>
<path d="M66.7942 53.1829C66.7617 53.3606 66.7617 53.5737 66.7617 54C66.7617 54.4263 66.7617 54.6394 66.7942 54.8171C66.943 55.6319 67.5801 56.2694 68.3942 56.4184C68.5717 56.4509 68.7847 56.4509 69.2106 56.4509H72.1463C72.5722 56.4509 72.7851 56.4509 72.9627 56.4184C73.7768 56.2694 74.4138 55.6319 74.5627 54.8171C74.5952 54.6394 74.5952 54.4263 74.5952 54C74.5952 53.5737 74.5952 53.3606 74.5627 53.1829C74.4138 52.3681 73.7768 51.7306 72.9627 51.5816C72.7851 51.5491 72.5722 51.5491 72.1463 51.5491H69.2106C68.7847 51.5491 68.5717 51.5491 68.3942 51.5816C67.5801 51.7306 66.943 52.3681 66.7942 53.1829Z" fill="#54525E"/>
<path d="M64.7675 62.9475C64.5546 63.3166 64.4481 63.5013 64.3874 63.6714C64.1093 64.4515 64.3425 65.3225 64.9731 65.8589C65.1106 65.9759 65.2951 66.0824 65.6639 66.2956L69.6668 68.6086C70.0356 68.8216 70.2201 68.9283 70.3901 68.989C71.1695 69.2673 72.0398 69.034 72.5757 68.4028C72.6926 68.2652 72.7991 68.0806 73.0121 67.7115C73.225 67.3424 73.3315 67.1577 73.3922 66.9876C73.6703 66.2075 73.4371 65.3365 72.8065 64.8001C72.669 64.6831 72.4846 64.5766 72.1157 64.3634L68.1128 62.0504C67.7441 61.8374 67.5595 61.7307 67.3895 61.67C66.6101 61.3917 65.7398 61.625 65.2039 62.2561C65.087 62.3938 64.9805 62.5784 64.7675 62.9475Z" fill="#54525E"/>
<path d="M34.9866 67.7121C34.7736 67.343 34.6671 67.1584 34.6065 66.9883C34.3284 66.2082 34.5615 65.3372 35.1921 64.8008C35.3297 64.6838 35.5141 64.5772 35.8829 64.3641L39.8872 62.0504C40.256 61.8372 40.4404 61.7307 40.6104 61.6699C41.3899 61.3916 42.2601 61.625 42.7961 62.2561C42.913 62.3937 43.0195 62.5783 43.2324 62.9475C43.4454 63.3166 43.5519 63.5012 43.6125 63.6713C43.8906 64.4514 43.6575 65.3224 43.0269 65.8588C42.8894 65.9758 42.7049 66.0823 42.3362 66.2954L38.3318 68.6092C37.9631 68.8223 37.7785 68.929 37.6086 68.9897C36.8291 69.268 35.9589 69.0346 35.4229 68.4035C35.306 68.2659 35.1995 68.0813 34.9866 67.7121Z" fill="#54525E"/>
<path d="M64.3875 44.3287C64.4482 44.4988 64.5547 44.6834 64.7676 45.0525C64.9806 45.4217 65.0871 45.6063 65.2039 45.7439C65.7399 46.375 66.6101 46.6084 67.3896 46.3301C67.5596 46.2693 67.744 46.1628 68.1129 45.9496L72.1151 43.6371C72.4839 43.4239 72.6684 43.3173 72.8059 43.2004C73.4365 42.6639 73.6697 41.793 73.3915 41.0129C73.3309 40.8428 73.2244 40.6582 73.0114 40.289C72.7985 39.9199 72.692 39.7353 72.5751 39.5976C72.0391 38.9665 71.1689 38.7332 70.3895 39.0115C70.2195 39.0722 70.035 39.1788 69.6662 39.3919L65.664 41.7045C65.2951 41.9176 65.1107 42.0242 64.9732 42.1412C64.3426 42.6776 64.1094 43.5486 64.3875 44.3287Z" fill="#54525E"/>
</g>
</svg>
